HIERARCHY
ROOT root
{
	OFFSET 0.000000 0.000000 0.000000
	CHANNELS 6 Xposition Yposition Zposition Zrotation Yrotation Xrotation
	JOINT lhip
	{
		OFFSET 0.058581 -0.082280 -0.017664
		CHANNELS 3 Zrotation Yrotation Xrotation
		JOINT lknee
		{
			OFFSET 0.043451 -0.386469 0.008037
			CHANNELS 3 Zrotation Yrotation Xrotation
			JOINT lankle
			{
				OFFSET -0.014790 -0.426874 -0.037428
				CHANNELS 3 Zrotation Yrotation Xrotation
				JOINT ltoe
				{
					OFFSET 0.041054 -0.060286 0.122042
					CHANNELS 3 Zrotation Yrotation Xrotation
					End Site
					{
						OFFSET 0.000000 0.000000 0.000000
					}
				}
			}
		}
	}
	JOINT rhip
	{
		OFFSET -0.060310 -0.090513 -0.013543
		CHANNELS 3 Zrotation Yrotation Xrotation
		JOINT rknee
		{
			OFFSET -0.043257 -0.383688 -0.004843
			CHANNELS 3 Zrotation Yrotation Xrotation
			JOINT rankle
			{
				OFFSET 0.019056 -0.420046 -0.034562
				CHANNELS 3 Zrotation Yrotation Xrotation
				JOINT rtoe
				{
					OFFSET -0.034840 -0.062106 0.130323
					CHANNELS 3 Zrotation Yrotation Xrotation
					End Site
					{
						OFFSET 0.000000 0.000000 0.000000
					}
				}
			}
		}
	}
	JOINT lowerback
	{
		OFFSET 0.004439 0.124404 -0.038385
		CHANNELS 3 Zrotation Yrotation Xrotation
		JOINT upperback
		{
			OFFSET 0.004488 0.137956 0.026820
			CHANNELS 3 Zrotation Yrotation Xrotation
			JOINT chest
			{
				OFFSET -0.002265 0.056032 0.002855
				CHANNELS 3 Zrotation Yrotation Xrotation
				JOINT lowerneck
				{
					OFFSET -0.013390 0.211636 -0.033468
					CHANNELS 3 Zrotation Yrotation Xrotation
					JOINT upperneck
					{
						OFFSET 0.010113 0.088937 0.050410
						CHANNELS 3 Zrotation Yrotation Xrotation
						End Site
						{
							OFFSET 0.000000 0.000000 0.000000
						}
					}
				}
				JOINT lclavicle
				{
					OFFSET 0.071702 0.114000 -0.018898
					CHANNELS 3 Zrotation Yrotation Xrotation
					JOINT lshoulder
					{
						OFFSET 0.122921 0.045205 -0.019046
						CHANNELS 3 Zrotation Yrotation Xrotation
						JOINT lelbow
						{
							OFFSET 0.255332 -0.015649 -0.022946
							CHANNELS 3 Zrotation Yrotation Xrotation
							JOINT lwrist
							{
								OFFSET 0.265709 0.012698 -0.007375
								CHANNELS 3 Zrotation Yrotation Xrotation
								End Site
								{
									OFFSET 0.000000 0.000000 0.000000
								}
							}
						}
					}
				}
				JOINT rclavicle
				{
					OFFSET -0.082954 0.112472 -0.023707
					CHANNELS 3 Zrotation Yrotation Xrotation
					JOINT rshoulder
					{
						OFFSET -0.113228 0.046853 -0.008472
						CHANNELS 3 Zrotation Yrotation Xrotation
						JOINT relbow
						{
							OFFSET -0.260127 -0.014369 -0.031269
							CHANNELS 3 Zrotation Yrotation Xrotation
							JOINT rwrist
							{
								OFFSET -0.269108 0.006794 -0.006027
								CHANNELS 3 Zrotation Yrotation Xrotation
								End Site
								{
									OFFSET 0.000000 0.000000 0.000000
								}
							}
						}
					}
				}
			}
		}
	}
}
MOTION
Frames: 8
Frame Time: 0.033333
0.095791 0.329430 1.029750 3.733835 2.485427 92.734965 2.533716 -0.237468 18.383581 -8.674228 -5.844455 25.608820 -10.058090 16.237236 27.312142 0.000000 -0.000000 0.000000 -2.446500 11.642911 -37.493095 2.853396 -13.152668 18.714844 7.071428 -9.925079 -9.392405 0.000000 -0.000000 0.000000 -4.222661 -11.106693 11.612518 3.052046 -1.759143 4.765602 4.326123 -5.122407 -11.183806 -5.762497 5.150871 5.532026 2.167094 17.144311 -2.614637 -21.450671 -6.094015 5.182392 -52.872057 -25.964614 16.954147 152.003443 -75.067684 -127.444309 17.588431 -13.066833 -16.885889 19.038069 -4.273997 8.358501 45.052130 -18.146310 10.545369 1.134349 31.430930 16.893536 0.999955 4.717783 3.403371 
0.095698 0.226466 1.012685 2.632230 -0.136178 90.955179 1.309637 1.258572 13.302665 -8.082627 0.555865 41.760139 -5.816125 17.898661 22.456773 0.000000 -0.000000 0.000000 -1.478322 7.546580 -30.873442 3.151623 -10.441322 20.852614 7.951598 -6.081395 -3.310457 0.000000 -0.000000 0.000000 -4.677434 -8.882826 12.829086 1.474698 -2.263961 2.151851 2.968249 -4.520527 -9.275801 -6.684134 3.093677 4.576175 2.202408 17.748791 -3.131540 -24.028724 -4.822320 5.219842 -51.596325 -20.915331 17.127396 159.676557 -77.506448 -138.778147 18.204543 -9.317232 -19.715776 20.364169 -3.894840 6.658183 44.738941 -17.612997 11.133654 2.550250 33.058038 15.594218 -1.085471 3.545787 4.054192 
0.093365 0.129721 0.990746 1.110409 0.032804 87.688431 4.789120 4.972724 7.178075 -4.008639 3.647341 58.980774 -1.596227 16.288366 10.529922 0.000000 -0.000000 0.000000 0.371704 2.110994 -27.683183 3.936903 -9.939596 34.683750 2.291250 -0.796481 -6.890297 0.000000 -0.000000 0.000000 -1.632621 -6.876223 18.639584 -0.428743 -0.889158 -4.312803 1.584406 -3.815525 -4.549087 -6.893607 2.892493 -2.356785 1.117951 14.794001 1.394688 -25.763348 -2.212178 1.064211 -52.019393 -15.123223 16.164468 169.326509 -83.868738 -147.700461 13.845411 -7.844605 -21.610347 21.859880 -2.551236 2.551108 45.245553 -15.130862 10.643836 2.630209 34.189947 15.724233 -4.918715 4.505881 3.159687 
0.089923 0.044344 0.977350 -2.513273 1.270547 87.811475 7.605503 2.678562 -7.266351 -0.657248 9.431871 74.296737 1.382189 14.388813 1.406911 0.000000 -0.000000 0.000000 1.757339 3.888517 -24.132990 5.997289 -8.521573 39.292051 2.406712 -1.562618 -10.484563 0.000000 -0.000000 0.000000 1.486018 -4.101894 22.082068 -0.846187 2.063289 -7.578036 0.180522 -2.415805 -2.540194 -6.776113 2.229080 -8.106175 -1.311638 11.131935 2.976656 -26.501904 2.799601 -1.364680 -53.146895 -11.598732 14.083958 -60.904693 -88.584468 87.870731 12.055596 -9.780677 -15.492421 23.546650 -2.224272 0.747833 46.062355 -6.986817 11.890534 -2.704572 36.858576 14.236974 -4.525824 5.482470 0.976128 
0.087679 -0.039385 0.976998 -4.712816 1.470338 88.099411 9.285691 -0.150792 -23.346044 0.070244 12.307349 81.376464 0.148758 14.393736 -8.823491 0.000000 -0.000000 0.000000 2.149734 0.818687 -15.552798 8.194287 -4.906349 35.788991 2.195385 0.168566 -13.535353 0.000000 -0.000000 0.000000 2.913426 0.257176 25.304055 -1.210167 1.500297 -8.890882 -0.370251 -0.802169 -2.785664 -7.120497 0.792419 -10.438115 -1.470919 8.521147 1.566611 -23.768514 5.998670 0.212389 -55.358725 -6.337320 9.663830 -69.633599 -87.702416 98.653805 12.190393 -9.973777 -17.841581 21.220180 0.199717 2.572493 50.501366 2.101251 8.102616 -7.230105 42.832041 10.516593 -7.741505 6.243771 -1.464074 
0.084620 -0.128829 0.981756 -6.432206 -0.149406 89.223477 10.325971 -4.322522 -37.026876 0.252306 17.005623 77.674450 1.077344 14.068577 -8.837415 0.000000 -0.000000 0.000000 1.623030 -1.656472 -8.723787 8.221806 1.782836 34.285913 3.538785 -0.945535 -15.522136 0.000000 -0.000000 0.000000 0.699808 5.109164 24.528955 -0.664690 1.094488 -9.732936 -0.754634 0.755334 -1.127763 -6.104188 0.532048 -12.178813 -0.922619 4.627472 2.171037 -20.788205 9.406217 0.803377 -55.641831 -1.255542 8.422469 -108.696414 -87.270236 136.802532 14.103806 -8.637279 -21.733131 20.191335 0.978017 1.106294 53.124334 7.675428 9.507675 -18.015000 52.321714 -0.774179 -7.955404 4.627300 -3.817488 
0.082680 -0.224692 0.991729 -6.358769 -1.825209 91.512665 9.056388 -5.597708 -47.186003 2.801659 17.656481 66.157492 1.818077 14.134778 -10.298993 0.000000 -0.000000 0.000000 -0.102194 -5.481359 -0.881352 6.051051 6.583285 28.764931 6.347877 0.242812 -12.844087 0.000000 -0.000000 0.000000 -1.664439 9.445167 19.926660 -0.195369 -0.226937 -9.080136 -1.006586 1.848489 -0.012110 -5.191574 0.048651 -10.269694 -0.518012 0.822188 1.541921 -17.413798 12.533262 1.539395 -54.606149 2.108970 8.071496 -94.053472 -85.783886 122.232123 16.177563 -7.961313 -23.409197 19.307733 0.006030 -0.878382 54.054225 10.786092 11.126568 -28.885378 61.263658 -10.586526 -9.176237 5.492390 -6.194339 
0.082940 -0.328034 1.003493 -5.842404 -3.518946 93.457296 7.893446 -8.927456 -50.361248 2.076480 19.676902 45.608083 2.388275 13.393892 -10.506874 0.000000 -0.000000 0.000000 -3.274052 -6.836977 8.320815 4.126104 6.950042 20.050455 10.461328 0.615575 -2.717698 0.000000 -0.000000 0.000000 -3.916703 13.029151 14.412808 -0.265546 -1.822054 -6.409867 -1.349683 2.677086 -0.891466 -5.294580 -1.136312 -6.168500 0.764141 -2.227360 -0.251531 -14.632003 14.567773 2.136258 -52.406466 4.389950 7.344872 -82.082944 -83.385297 108.323276 16.220366 -8.390254 -20.752478 18.286841 -1.497784 -1.162325 54.110287 11.802860 12.787945 -42.789513 69.577550 -22.455736 -11.882064 5.232405 -4.968669 
